<svg xmlns="http://www.w3.org/2000/svg" xmlns:xlink="http://www.w3.org/1999/xlink" width="64" zoomAndPan="magnify" viewBox="0 0 48 48" height="64" preserveAspectRatio="xMidYMid meet" version="1.0"><defs><clipPath id="d96ad9a4b7"><path d="M 7.097656 1.699219 L 40.890625 1.699219 L 40.890625 45.046875 L 7.097656 45.046875 Z M 7.097656 1.699219 " clip-rule="nonzero"/></clipPath></defs><g clip-path="url(#d96ad9a4b7)"><path fill="#9f9f9f" d="M 37.269531 18.550781 L 37.269531 14.976562 C 37.269531 7.65625 31.3125 1.699219 23.996094 1.699219 C 16.675781 1.699219 10.71875 7.65625 10.71875 14.976562 L 10.71875 18.550781 C 8.714844 18.605469 7.105469 20.238281 7.105469 22.257812 L 7.105469 41.59375 C 7.105469 42.089844 7.199219 42.5625 7.386719 43.015625 C 7.574219 43.472656 7.84375 43.875 8.191406 44.222656 C 8.539062 44.570312 8.941406 44.839844 9.398438 45.027344 C 9.851562 45.214844 10.324219 45.308594 10.816406 45.308594 L 37.171875 45.308594 C 37.664062 45.308594 38.136719 45.214844 38.59375 45.027344 C 39.046875 44.839844 39.449219 44.570312 39.796875 44.222656 C 40.148438 43.875 40.414062 43.472656 40.605469 43.015625 C 40.792969 42.5625 40.886719 42.089844 40.886719 41.59375 L 40.886719 22.257812 C 40.886719 20.238281 39.273438 18.605469 37.269531 18.550781 Z M 27.035156 29.253906 C 27.015625 29.367188 26.953125 29.632812 26.945312 29.652344 C 26.71875 30.4375 26.179688 31.082031 25.472656 31.476562 L 26.667969 36.558594 C 26.703125 36.664062 26.710938 36.773438 26.695312 36.886719 C 26.675781 36.996094 26.636719 37.097656 26.574219 37.1875 C 26.507812 37.28125 26.425781 37.351562 26.328125 37.40625 C 26.226562 37.457031 26.125 37.484375 26.011719 37.488281 L 22.058594 37.488281 C 21.949219 37.484375 21.84375 37.457031 21.742188 37.40625 C 21.644531 37.351562 21.5625 37.28125 21.5 37.1875 C 21.433594 37.097656 21.394531 36.996094 21.375 36.886719 C 21.359375 36.773438 21.371094 36.664062 21.40625 36.558594 L 22.515625 31.476562 C 21.8125 31.082031 21.269531 30.4375 21.042969 29.652344 C 21.039062 29.632812 20.972656 29.367188 20.957031 29.253906 C 20.933594 29.113281 20.925781 28.96875 20.925781 28.824219 C 20.925781 28.417969 21.003906 28.027344 21.15625 27.652344 C 21.3125 27.273438 21.535156 26.941406 21.824219 26.652344 C 22.113281 26.367188 22.445312 26.144531 22.820312 25.988281 C 23.195312 25.832031 23.585938 25.753906 23.996094 25.753906 C 24.402344 25.753906 24.792969 25.832031 25.171875 25.988281 C 25.546875 26.144531 25.878906 26.367188 26.167969 26.652344 C 26.453125 26.941406 26.675781 27.273438 26.832031 27.652344 C 26.988281 28.027344 27.066406 28.417969 27.066406 28.824219 C 27.066406 28.96875 27.054688 29.113281 27.035156 29.253906 Z M 32.738281 18.542969 L 15.25 18.542969 L 15.25 14.976562 C 15.25 10.152344 19.171875 6.230469 23.996094 6.230469 C 28.820312 6.230469 32.738281 10.152344 32.738281 14.976562 Z M 32.738281 18.542969 " fill-opacity="1" fill-rule="nonzero"/></g></svg>