<svg xmlns="http://www.w3.org/2000/svg" xmlns:xlink="http://www.w3.org/1999/xlink" width="64" zoomAndPan="magnify" viewBox="0 0 48 48" height="64" preserveAspectRatio="xMidYMid meet" version="1.0"><defs><clipPath id="db409fd334"><path d="M 28 27 L 42.957031 27 L 42.957031 42.464844 L 28 42.464844 Z M 28 27 " clip-rule="nonzero"/></clipPath></defs><path fill="#9f9f9f" d="M 20.648438 34.996094 C 20.046875 34.996094 19.445312 34.960938 18.847656 34.886719 C 18.253906 34.816406 17.660156 34.703125 17.078125 34.558594 C 16.496094 34.414062 15.921875 34.230469 15.359375 34.015625 C 14.796875 33.800781 14.253906 33.550781 13.722656 33.265625 C 13.191406 32.980469 12.679688 32.667969 12.1875 32.320312 C 11.695312 31.976562 11.226562 31.597656 10.78125 31.195312 C 10.335938 30.792969 9.914062 30.363281 9.523438 29.90625 C 9.128906 29.449219 8.765625 28.972656 8.429688 28.472656 C 8.097656 27.972656 7.792969 27.453125 7.523438 26.917969 C 7.253906 26.378906 7.015625 25.828125 6.8125 25.261719 C 6.609375 24.695312 6.441406 24.117188 6.3125 23.53125 C 6.179688 22.941406 6.085938 22.351562 6.023438 21.75 C 5.964844 21.152344 5.945312 20.550781 5.957031 19.949219 C 5.972656 19.347656 6.023438 18.75 6.113281 18.15625 C 6.203125 17.558594 6.328125 16.972656 6.488281 16.394531 C 6.648438 15.8125 6.84375 15.246094 7.074219 14.6875 C 7.304688 14.132812 7.566406 13.59375 7.863281 13.070312 C 8.160156 12.546875 8.488281 12.042969 8.847656 11.558594 C 9.203125 11.078125 9.589844 10.617188 10.007812 10.183594 C 10.421875 9.746094 10.863281 9.335938 11.328125 8.957031 C 11.792969 8.574219 12.277344 8.222656 12.789062 7.902344 C 13.296875 7.578125 13.820312 7.289062 14.367188 7.03125 C 14.910156 6.777344 15.46875 6.554688 16.039062 6.363281 C 16.609375 6.175781 17.191406 6.023438 17.78125 5.90625 C 18.371094 5.789062 18.96875 5.707031 19.566406 5.664062 C 20.167969 5.621094 20.769531 5.613281 21.367188 5.644531 C 21.96875 5.671875 22.566406 5.738281 23.160156 5.84375 C 23.753906 5.945312 24.335938 6.085938 24.910156 6.261719 C 25.488281 6.433594 26.050781 6.644531 26.601562 6.886719 C 27.152344 7.132812 27.683594 7.410156 28.199219 7.71875 C 28.714844 8.027344 29.210938 8.367188 29.683594 8.738281 C 30.160156 9.109375 30.609375 9.507812 31.03125 9.933594 C 31.542969 10.445312 32.015625 10.988281 32.445312 11.570312 C 32.875 12.148438 33.261719 12.757812 33.601562 13.394531 C 33.941406 14.03125 34.234375 14.691406 34.480469 15.371094 C 34.722656 16.050781 34.914062 16.742188 35.054688 17.453125 C 35.195312 18.160156 35.285156 18.875 35.320312 19.597656 C 35.355469 20.316406 35.339844 21.039062 35.269531 21.757812 C 35.195312 22.476562 35.074219 23.1875 34.898438 23.886719 C 34.722656 24.585938 34.496094 25.269531 34.21875 25.9375 C 33.945312 26.605469 33.621094 27.25 33.25 27.867188 C 32.878906 28.488281 32.460938 29.078125 32.003906 29.632812 C 31.546875 30.191406 31.046875 30.714844 30.511719 31.199219 C 29.976562 31.683594 29.410156 32.125 28.808594 32.527344 C 28.207031 32.929688 27.582031 33.285156 26.929688 33.59375 C 26.273438 33.902344 25.601562 34.160156 24.910156 34.367188 C 24.21875 34.578125 23.515625 34.734375 22.804688 34.839844 C 22.089844 34.945312 21.371094 35 20.648438 34.996094 Z M 20.648438 8.859375 C 20.210938 8.859375 19.773438 8.882812 19.335938 8.933594 C 18.902344 8.980469 18.46875 9.054688 18.042969 9.15625 C 17.617188 9.253906 17.195312 9.375 16.785156 9.523438 C 16.371094 9.667969 15.96875 9.839844 15.574219 10.03125 C 15.179688 10.226562 14.800781 10.441406 14.429688 10.675781 C 14.0625 10.914062 13.707031 11.171875 13.371094 11.449219 C 13.03125 11.726562 12.707031 12.023438 12.402344 12.335938 C 12.097656 12.648438 11.8125 12.980469 11.542969 13.328125 C 11.277344 13.675781 11.03125 14.035156 10.804688 14.414062 C 10.578125 14.789062 10.375 15.175781 10.191406 15.574219 C 10.011719 15.972656 9.851562 16.378906 9.71875 16.796875 C 9.582031 17.214844 9.472656 17.636719 9.386719 18.066406 C 9.300781 18.496094 9.238281 18.929688 9.203125 19.367188 C 9.167969 19.804688 9.15625 20.242188 9.167969 20.679688 C 9.183594 21.117188 9.222656 21.554688 9.285156 21.988281 C 9.347656 22.417969 9.4375 22.847656 9.550781 23.273438 C 9.664062 23.695312 9.800781 24.109375 9.960938 24.519531 C 10.121094 24.925781 10.304688 25.324219 10.511719 25.710938 C 10.71875 26.097656 10.945312 26.46875 11.195312 26.832031 C 11.441406 27.191406 11.710938 27.535156 12 27.867188 C 12.289062 28.195312 12.59375 28.507812 12.917969 28.804688 C 13.242188 29.097656 13.585938 29.371094 13.941406 29.628906 C 14.296875 29.882812 14.664062 30.117188 15.046875 30.332031 C 15.429688 30.542969 15.824219 30.734375 16.230469 30.902344 C 16.632812 31.070312 17.046875 31.214844 17.46875 31.335938 C 17.890625 31.457031 18.316406 31.550781 18.75 31.625 C 19.183594 31.695312 19.617188 31.742188 20.054688 31.765625 C 20.492188 31.785156 20.929688 31.78125 21.367188 31.753906 C 21.804688 31.726562 22.238281 31.671875 22.667969 31.59375 C 23.101562 31.515625 23.527344 31.414062 23.945312 31.285156 C 24.363281 31.160156 24.773438 31.007812 25.175781 30.832031 C 25.578125 30.660156 25.96875 30.460938 26.351562 30.242188 C 26.730469 30.023438 27.09375 29.785156 27.445312 29.523438 C 27.800781 29.261719 28.136719 28.980469 28.453125 28.683594 C 28.773438 28.382812 29.078125 28.066406 29.359375 27.730469 C 29.644531 27.398438 29.90625 27.046875 30.148438 26.683594 C 30.394531 26.320312 30.617188 25.941406 30.816406 25.554688 C 31.015625 25.164062 31.191406 24.761719 31.347656 24.351562 C 31.5 23.941406 31.632812 23.523438 31.738281 23.101562 C 31.84375 22.675781 31.925781 22.246094 31.984375 21.8125 C 32.039062 21.375 32.070312 20.941406 32.078125 20.5 C 32.085938 20.0625 32.066406 19.625 32.023438 19.191406 C 31.980469 18.753906 31.914062 18.320312 31.820312 17.894531 C 31.726562 17.464844 31.609375 17.042969 31.46875 16.628906 C 31.328125 16.214844 31.164062 15.808594 30.976562 15.414062 C 30.789062 15.015625 30.578125 14.632812 30.347656 14.261719 C 30.117188 13.890625 29.863281 13.53125 29.589844 13.1875 C 29.320312 12.84375 29.027344 12.519531 28.71875 12.210938 C 27.648438 11.140625 26.414062 10.3125 25.015625 9.734375 C 23.617188 9.152344 22.160156 8.863281 20.648438 8.859375 Z M 20.648438 8.859375 " fill-opacity="1" fill-rule="nonzero"/><g clip-path="url(#db409fd334)"><path fill="#9f9f9f" d="M 41.46875 42.753906 C 41.023438 42.75 40.644531 42.589844 40.328125 42.277344 L 28.75 30.703125 C 28.597656 30.554688 28.480469 30.378906 28.398438 30.179688 C 28.316406 29.984375 28.277344 29.777344 28.277344 29.5625 C 28.277344 29.347656 28.316406 29.144531 28.398438 28.945312 C 28.480469 28.746094 28.597656 28.574219 28.75 28.421875 C 28.902344 28.269531 29.074219 28.152344 29.273438 28.070312 C 29.472656 27.988281 29.675781 27.949219 29.890625 27.949219 C 30.105469 27.949219 30.3125 27.988281 30.507812 28.070312 C 30.707031 28.152344 30.882812 28.269531 31.03125 28.421875 L 42.605469 40 C 42.832031 40.230469 42.980469 40.507812 43.042969 40.824219 C 43.105469 41.144531 43.074219 41.453125 42.953125 41.753906 C 42.828125 42.054688 42.628906 42.296875 42.359375 42.476562 C 42.089844 42.660156 41.792969 42.75 41.46875 42.753906 Z M 41.46875 42.753906 " fill-opacity="1" fill-rule="nonzero"/></g></svg>