<svg xmlns="http://www.w3.org/2000/svg" xmlns:xlink="http://www.w3.org/1999/xlink" width="64" zoomAndPan="magnify" viewBox="0 0 48 48" height="64" preserveAspectRatio="xMidYMid meet" version="1.0"><defs><clipPath id="89f4e5b3ba"><path d="M 0.488281 0 L 47.507812 0 L 47.507812 47.019531 L 0.488281 47.019531 Z M 0.488281 0 " clip-rule="nonzero"/></clipPath><clipPath id="97ca6fefe2"><path d="M 5.191406 6.023438 L 47 6.023438 L 47 42.023438 L 5.191406 42.023438 Z M 5.191406 6.023438 " clip-rule="nonzero"/></clipPath></defs><g clip-path="url(#89f4e5b3ba)"><path fill="#ffffff" d="M 0.488281 0 L 47.511719 0 L 47.511719 47.019531 L 0.488281 47.019531 Z M 0.488281 0 " fill-opacity="1" fill-rule="nonzero"/><path fill="#ffffff" d="M 0.488281 0 L 47.511719 0 L 47.511719 47.019531 L 0.488281 47.019531 Z M 0.488281 0 " fill-opacity="1" fill-rule="nonzero"/></g><g clip-path="url(#97ca6fefe2)"><path fill="#000000" d="M 34.097656 15.21875 C 34.171875 16.324219 34.246094 17.417969 34.324219 18.511719 C 34.503906 21.148438 34.589844 23.789062 34.601562 26.429688 C 34.601562 26.738281 34.65625 27.015625 34.792969 27.292969 C 35.425781 28.589844 36.046875 29.894531 36.675781 31.199219 C 36.722656 31.296875 36.78125 31.390625 36.882812 31.570312 C 36.996094 31.066406 37.09375 30.652344 37.183594 30.234375 C 37.632812 28.152344 38.0625 26.0625 38.390625 23.957031 C 38.417969 23.78125 38.414062 23.621094 38.351562 23.449219 C 37.949219 22.410156 38.320312 21.179688 39.234375 20.53125 C 39.367188 20.4375 39.421875 20.359375 39.378906 20.195312 C 39.214844 19.597656 39.101562 18.988281 38.558594 18.5625 C 38.25 18.320312 38.261719 17.902344 38.503906 17.625 C 38.742188 17.351562 39.125 17.320312 39.449219 17.558594 C 39.898438 17.882812 40.214844 18.308594 40.394531 18.832031 C 40.515625 19.183594 40.613281 19.542969 40.726562 19.90625 C 40.851562 19.980469 40.992188 19.933594 41.125 19.929688 C 42.789062 19.914062 44.453125 19.886719 46.113281 19.878906 C 46.726562 19.875 47.070312 20.390625 46.804688 20.875 C 46.644531 21.164062 46.378906 21.238281 46.074219 21.238281 C 44.796875 21.242188 43.523438 21.253906 42.246094 21.261719 C 42.125 21.261719 42 21.261719 41.828125 21.261719 C 42.027344 22.039062 42.035156 22.757812 41.585938 23.410156 C 41.144531 24.046875 40.546875 24.40625 39.71875 24.421875 C 39.667969 24.6875 39.617188 24.953125 39.566406 25.21875 C 39.167969 27.449219 38.730469 29.675781 38.203125 31.882812 C 38.113281 32.269531 38.015625 32.65625 37.839844 33.019531 C 37.449219 33.824219 36.71875 33.898438 36.210938 33.164062 C 35.648438 32.351562 35.28125 31.429688 34.835938 30.550781 C 34.785156 30.453125 34.738281 30.351562 34.6875 30.246094 C 34.546875 30.3125 34.609375 30.425781 34.609375 30.507812 C 34.554688 34.023438 34.503906 37.535156 34.457031 41.050781 C 34.453125 41.113281 34.453125 41.175781 34.453125 41.238281 C 34.433594 41.707031 34.160156 42.007812 33.757812 42.003906 C 33.351562 41.996094 33.082031 41.695312 33.089844 41.222656 C 33.109375 39.941406 33.140625 38.65625 33.15625 37.371094 C 33.226562 32.425781 33.335938 27.476562 33.164062 22.527344 C 33.089844 20.347656 32.949219 18.171875 32.777344 15.996094 C 32.765625 15.863281 32.746094 15.730469 32.726562 15.5625 C 32.003906 15.679688 31.308594 15.808594 30.605469 15.90625 C 28.042969 16.269531 25.46875 16.558594 22.871094 16.476562 C 22.121094 16.449219 21.378906 16.355469 20.648438 16.175781 C 19.285156 15.832031 18.269531 14.996094 17.382812 13.964844 C 17.144531 13.683594 17.1875 13.292969 17.445312 13.050781 C 17.710938 12.800781 18.109375 12.800781 18.390625 13.070312 C 18.609375 13.277344 18.808594 13.5 19.023438 13.710938 C 19.875 14.5625 20.9375 14.945312 22.117188 15.058594 C 23.757812 15.21875 25.390625 15.117188 27.023438 14.964844 C 29.140625 14.765625 31.25 14.515625 33.320312 14.003906 C 33.839844 13.875 34.355469 13.71875 34.835938 13.464844 C 35.582031 13.074219 35.792969 12.5 35.457031 11.71875 C 35.097656 10.878906 34.472656 10.257812 33.765625 9.707031 C 32.375 8.625 30.765625 8.050781 29.046875 7.835938 C 24.882812 7.316406 20.914062 7.9375 17.246094 10.042969 C 14.402344 11.671875 12.503906 14.121094 11.269531 17.113281 C 10.164062 19.800781 9.484375 22.609375 8.871094 25.433594 C 8.722656 26.117188 8.605469 26.804688 8.453125 27.488281 C 8.40625 27.703125 8.457031 27.863281 8.585938 28.035156 C 9.546875 29.28125 10.617188 30.433594 11.710938 31.566406 C 11.925781 31.785156 12.136719 32.003906 12.300781 32.28125 C 12.175781 31.992188 12.28125 31.734375 12.34375 31.46875 C 12.917969 28.96875 13.4375 26.457031 13.835938 23.917969 C 13.863281 23.738281 13.84375 23.582031 13.773438 23.414062 C 13.386719 22.433594 13.777344 21.148438 14.644531 20.550781 C 14.800781 20.445312 14.863281 20.359375 14.808594 20.164062 C 14.652344 19.574219 14.535156 18.980469 14 18.566406 C 13.691406 18.332031 13.699219 17.90625 13.9375 17.632812 C 14.171875 17.367188 14.542969 17.324219 14.855469 17.535156 C 15.492188 17.964844 15.804688 18.605469 15.996094 19.320312 C 16.164062 19.941406 16.167969 19.933594 16.824219 19.925781 C 18.386719 19.902344 19.949219 19.886719 21.511719 19.875 C 22.078125 19.871094 22.410156 20.226562 22.308594 20.699219 C 22.234375 21.042969 21.96875 21.230469 21.515625 21.234375 C 20.25 21.246094 18.988281 21.253906 17.726562 21.261719 C 17.589844 21.261719 17.453125 21.261719 17.265625 21.261719 C 17.460938 22.03125 17.480469 22.753906 17.03125 23.40625 C 16.582031 24.050781 15.972656 24.414062 15.160156 24.421875 C 14.984375 25.355469 14.820312 26.273438 14.644531 27.1875 C 14.324219 28.828125 14 30.464844 13.59375 32.085938 C 13.503906 32.433594 13.414062 32.785156 13.238281 33.105469 C 12.929688 33.679688 12.371094 33.84375 11.816406 33.492188 C 11.589844 33.347656 11.378906 33.160156 11.183594 32.96875 C 10.222656 32.023438 9.3125 31.03125 8.433594 30.007812 C 8.335938 29.894531 8.238281 29.78125 8.085938 29.605469 C 7.992188 30.125 7.90625 30.578125 7.835938 31.03125 C 7.320312 34.40625 6.765625 37.777344 6.589844 41.195312 C 6.589844 41.230469 6.582031 41.269531 6.578125 41.304688 C 6.527344 41.761719 6.257812 42.023438 5.863281 42.003906 C 5.449219 41.980469 5.195312 41.671875 5.21875 41.199219 C 5.277344 40.003906 5.375 38.8125 5.519531 37.625 C 5.898438 34.53125 6.355469 31.449219 6.910156 28.386719 C 6.949219 28.164062 6.933594 27.972656 6.804688 27.78125 C 6.71875 27.660156 6.664062 27.519531 6.605469 27.382812 C 6.09375 26.21875 6.300781 25.261719 7.308594 24.496094 C 7.660156 24.226562 7.808594 23.925781 7.902344 23.523438 C 8.5 20.960938 9.1875 18.425781 10.265625 16.011719 C 12.367188 11.308594 15.984375 8.398438 20.914062 7.054688 C 23.882812 6.246094 26.898438 6.023438 29.941406 6.605469 C 32.097656 7.019531 34.035156 7.898438 35.574219 9.511719 C 36.085938 10.046875 36.519531 10.644531 36.777344 11.34375 C 37.277344 12.6875 36.832031 13.890625 35.59375 14.605469 C 35.125 14.875 34.609375 15.03125 34.097656 15.21875 Z M 36.898438 32.269531 L 36.886719 32.292969 L 36.90625 32.292969 Z M 23.964844 11.398438 C 22.957031 10.800781 21.867188 10.890625 20.855469 11.652344 C 20.433594 11.96875 20.34375 12.1875 20.535156 12.433594 C 20.71875 12.675781 20.960938 12.660156 21.371094 12.324219 C 22.054688 11.765625 22.773438 11.730469 23.535156 12.128906 C 23.621094 12.175781 23.714844 12.21875 23.8125 12.234375 C 24.070312 12.273438 24.277344 12.085938 24.277344 11.824219 C 24.273438 11.636719 24.203125 11.539062 23.964844 11.398438 Z M 32.878906 11.019531 C 32.867188 10.625 32.550781 10.320312 32.148438 10.320312 C 31.753906 10.324219 31.4375 10.636719 31.429688 11.03125 C 31.421875 11.4375 31.75 11.769531 32.160156 11.765625 C 32.574219 11.761719 32.890625 11.433594 32.878906 11.019531 Z M 32.878906 11.019531 " fill-opacity="1" fill-rule="evenodd"/></g></svg>